<svg width="7" height="4" viewBox="0 0 7 4" fill="none" xmlns="http://www.w3.org/2000/svg">
<path d="M3.52942 0.986816C2.03003 0.986816 0.688215 1.64357 0.183914 2.62421C0.123918 2.74368 0.113434 2.88193 0.154728 3.00906C0.196021 3.13619 0.285778 3.24197 0.404555 3.30347C0.475978 3.33873 0.554518 3.35719 0.634183 3.35745C0.727274 3.35769 0.818622 3.33218 0.898094 3.28374C0.977567 3.23531 1.04206 3.16584 1.08445 3.08304C1.41315 2.44427 2.43527 1.99445 3.52942 1.99445C4.62357 1.99445 5.64568 2.44427 5.97888 3.08304C6.00892 3.14222 6.05036 3.1949 6.10084 3.23803C6.15131 3.28116 6.20981 3.31391 6.27298 3.33439C6.33616 3.35487 6.40277 3.36269 6.46897 3.35738C6.53518 3.35207 6.59968 3.33375 6.65878 3.30347C6.77873 3.24196 6.86934 3.1354 6.91071 3.0072C6.95208 2.87899 6.94083 2.73963 6.87942 2.61971C6.36611 1.64357 5.01531 0.986816 3.52942 0.986816Z" fill="#3F4E65"/>
</svg>
